<?xml version="1.0" encoding="utf-8"?>
<svg version="1.1" id="Layer_1" xmlns="http://www.w3.org/2000/svg" xmlns:xlink="http://www.w3.org/1999/xlink" x="0px" y="0px"
	 viewBox="0 0 1980.92 1675.238" enable-background="new 0 0 1980.92 1675.238" xml:space="preserve">
<g>
	<circle cx="1445.199" cy="291.177" r="69.358"/>
	<circle cx="1281.081" cy="215.643" r="69.745"/>
	<circle cx="1550.006" cy="1201.675" r="70.132"/>
	<circle cx="882.449" cy="651.761" r="69.905"/>
	<circle cx="882.378" cy="366.096" r="69.598"/>
	<circle cx="1403.432" cy="911.67" r="69.726"/>
	<circle cx="983.08" cy="236.829" r="70.882"/>
	<circle cx="1264.425" cy="875.616" r="69.793"/>
	<circle cx="1150.51" cy="565.533" r="70.313"/>
	<circle cx="1284.292" cy="701.191" r="70.778"/>
	<circle cx="642.398" cy="851.435" r="70.146"/>
	<circle cx="361.113" cy="287.924" r="69.509"/>
	<circle cx="259.23" cy="512.976" r="69.7"/>
	<circle cx="1117.447" cy="360.956" r="69.626"/>
	<circle cx="1050.801" cy="946.369" r="71.853"/>
	<circle cx="332.759" cy="694.476" r="69.431"/>
	<circle cx="328.63" cy="877.133" r="69.457"/>
	<circle cx="1514.636" cy="712.913" r="69.937"/>
	<circle cx="737.25" cy="1082.119" r="69.588"/>
	<circle cx="559.909" cy="502.223" r="69.552"/>
	<circle cx="1684.807" cy="583.168" r="71.339"/>
	<circle cx="887.904" cy="796.653" r="71.15"/>
	<circle cx="1117.235" cy="1247.874" r="71.433"/>
	<circle cx="1315.792" cy="1291.799" r="70.391"/>
	<circle cx="1313.12" cy="1100.994" r="69.67"/>
	<circle cx="730.879" cy="233.069" r="70.426"/>
	<circle cx="142.198" cy="665.734" r="70.866"/>
	<circle cx="1543.118" cy="541.027" r="72.549"/>
	<circle cx="602.326" cy="311.085" r="70.798"/>
	<circle cx="1841.661" cy="1006.93" r="70.492"/>
	<circle cx="736.073" cy="572.053" r="69.533"/>
	<circle cx="945.431" cy="1113.258" r="70.014"/>
	<circle cx="583.668" cy="983.774" r="69.665"/>
	<circle cx="739.496" cy="400.786" r="69.878"/>
	<circle cx="1388.66" cy="593.058" r="71.962"/>
	<circle cx="1695.329" cy="968.968" r="70.374"/>
	<circle cx="1293.112" cy="426.511" r="69.938"/>
	<circle cx="717.079" cy="728.334" r="69.713"/>
	<circle cx="1519.318" cy="1370.887" r="69.516"/>
	<circle cx="843.089" cy="937.158" r="71.812"/>
	<circle cx="1800.446" cy="743.99" r="70.236"/>
	<circle cx="479.616" cy="737.064" r="70.437"/>
	<circle cx="1741.515" cy="1154.722" r="71.741"/>
	<circle cx="1586.113" cy="862.942" r="69.515"/>
	<circle cx="1130.508" cy="794.852" r="69.856"/>
	<circle cx="959.853" cy="512.522" r="70.399"/>
	<circle cx="388.49" cy="566.801" r="69.877"/>
	<circle cx="1126.791" cy="166.383" r="70.872"/>
	<circle cx="1511.833" cy="1057.284" r="70.327"/>
	<circle cx="1018.41" cy="700.552" r="69.513"/>
	<circle cx="1155.123" cy="1067.832" r="69.851"/>
	<circle cx="1363.211" cy="1423.231" r="69.333"/>
	<circle cx="1585.704" cy="403.265" r="71.645"/>
	<circle cx="1431.859" cy="1240.589" r="47.313"/>
	<circle cx="1870.579" cy="880.366" r="48.796"/>
	<circle cx="626.459" cy="655.91" r="46.292"/>
	<circle cx="1433.266" cy="796.189" r="46.493"/>
	<circle cx="536.136" cy="1108.353" r="47.412"/>
	<circle cx="1193.731" cy="1445.24" r="47.193"/>
	<circle cx="996.583" cy="1257.939" r="47.815"/>
	<circle cx="448.184" cy="999.555" r="48.37"/>
	<circle cx="1463.221" cy="419.321" r="48.32"/>
	<circle cx="193.546" cy="406.998" r="46.472"/>
	<circle cx="422.348" cy="389.334" r="47.174"/>
	<circle cx="836.331" cy="160.007" r="46.522"/>
	<circle cx="515.409" cy="857.124" r="48.427"/>
	<circle cx="203.233" cy="785.06" r="49.008"/>
	<circle cx="1627.187" cy="1297.455" r="46.285"/>
	<circle cx="1133.64" cy="1373.687" r="46.245"/>
	<circle cx="511.275" cy="218.079" r="46.49"/>
	<circle cx="306.307" cy="404.412" r="48.188"/>
	<circle cx="1624.967" cy="1095.496" r="49.086"/>
	<circle cx="624.158" cy="165.969" r="46.42"/>
	<circle cx="1747.69" cy="856.729" r="47.076"/>
	<circle cx="846.747" cy="1183.474" r="47.06"/>
	<circle cx="691.921" cy="1189.441" r="46.621"/>
	<circle cx="985.695" cy="98.159" r="46.871"/>
	<circle cx="136.797" cy="506.088" r="49.412"/>
	<circle cx="1658.472" cy="698.675" r="46.622"/>
	<circle cx="836.552" cy="485.353" r="47.303"/>
	<circle cx="1252.301" cy="521.451" r="33.402"/>
	<circle cx="1182.082" cy="661.793" r="30.992"/>
	<circle cx="1170.396" cy="913.088" r="31.428"/>
	<circle cx="1867.743" cy="1120.244" r="32.019"/>
	<circle cx="983.778" cy="835.505" r="32.298"/>
	<circle cx="848.456" cy="270.194" r="32.127"/>
	<circle cx="1791.448" cy="615.891" r="35.824"/>
	<circle cx="1201.231" cy="1314.295" r="31.412"/>
	<circle cx="725.993" cy="917.325" r="32.372"/>
	<circle cx="1039.61" cy="1156.611" r="33.664"/>
	<circle cx="783.793" cy="832.493" r="30.939"/>
	<circle cx="591.074" cy="735.96" r="31.474"/>
	<circle cx="1201.003" cy="1157.469" r="30.846"/>
	<circle cx="1338.265" cy="995.156" r="32.966"/>
	<circle cx="468.842" cy="305.711" r="32.303"/>
	<circle cx="433.032" cy="908.233" r="31.541"/>
	<circle cx="549.7" cy="633.786" r="33.592"/>
	<circle cx="1392.853" cy="1035.962" r="31.693"/>
	<circle cx="1201.865" cy="283.882" r="34.81"/>
	<circle cx="1149.012" cy="1534.545" r="33.021"/>
	<circle cx="1062.897" cy="500.622" r="31.156"/>
	<circle cx="991.648" cy="404.469" r="31.252"/>
	<circle cx="1690.222" cy="417.543" r="31.88"/>
	<circle cx="429.093" cy="209.949" r="31.433"/>
	<circle cx="1058.538" cy="1349.026" r="31.666"/>
	<circle cx="1038.76" cy="1075.017" r="30.846"/>
	<circle cx="1198.014" cy="473.776" r="32.282"/>
	<circle cx="1334.198" cy="315.876" r="31.468"/>
	<circle cx="1690.97" cy="773.101" r="34.59"/>
	<circle cx="1252.363" cy="590.723" r="32.152"/>
	<circle cx="944.964" cy="918.337" r="31.787"/>
	<circle cx="945.97" cy="985.628" r="32.22"/>
	<circle cx="1263.318" cy="1378.513" r="30.964"/>
	<circle cx="1403.292" cy="195.443" r="32.031"/>
	<circle cx="1022.72" cy="600.286" r="30.846"/>
	<circle cx="1734.139" cy="481.119" r="33.787"/>
	<circle cx="369.525" cy="454.718" r="31.672"/>
	<circle cx="631.586" cy="1090.649" r="35.362"/>
	<circle cx="845.873" cy="1091.466" r="31.535"/>
	<circle cx="744.57" cy="992.255" r="20.574"/>
	<circle cx="1504.135" cy="1462.653" r="21.817"/>
	<circle cx="225.84" cy="708.812" r="23.218"/>
	<circle cx="591.3" cy="1185.994" r="20.73"/>
	<circle cx="737.621" cy="100.1" r="22.316"/>
	<circle cx="733.035" cy="855.326" r="20.574"/>
	<circle cx="1424.154" cy="702.677" r="21.123"/>
	<circle cx="1308.353" cy="541.342" r="23.556"/>
	<circle cx="1230.263" cy="976.187" r="22.878"/>
	<circle cx="1460.658" cy="1457.856" r="21.924"/>
	<circle cx="303.147" cy="603.802" r="23.143"/>
	<circle cx="1216.585" cy="1234.833" r="25.621"/>
	<circle cx="1625.403" cy="774.111" r="23.335"/>
	<circle cx="926.382" cy="141.038" r="21.916"/>
	<circle cx="1113.155" cy="1155.957" r="20.574"/>
	<circle cx="1591.763" cy="976.081" r="25.881"/>
	<circle cx="255.383" cy="332.798" r="24.365"/>
	<circle cx="466.654" cy="495.716" r="21.162"/>
	<circle cx="1400.462" cy="1127.525" r="21.613"/>
	<circle cx="1214.533" cy="107.912" r="21.008"/>
	<circle cx="1280.043" cy="968.232" r="23.903"/>
	<circle cx="853.389" cy="565.075" r="20.585"/>
	<circle cx="1736.581" cy="1052.183" r="22.504"/>
	<circle cx="1058.599" cy="441.047" r="23.361"/>
	<circle cx="487.284" cy="583.123" r="20.909"/>
	<circle cx="1408.999" cy="477.548" r="24.383"/>
	<circle cx="1646.763" cy="1170.066" r="23.118"/>
	<circle cx="1233.438" cy="1609.209" r="21.291"/>
	<circle cx="791.904" cy="320.608" r="23.525"/>
	<circle cx="1183.903" cy="1594.78" r="20.774"/>
	<circle cx="1399.374" cy="391.036" r="21.512"/>
	<circle cx="728.886" cy="142.091" r="20.574"/>
	<circle cx="1467.558" cy="1146.11" r="21.662"/>
	<circle cx="541.456" cy="117.737" r="21.205"/>
	<circle cx="1111.617" cy="665.74" r="25.972"/>
	<circle cx="1654.729" cy="490.786" r="25.816"/>
	<circle cx="444.621" cy="1075.468" r="22.008"/>
	<circle cx="1040.146" cy="791.338" r="20.574"/>
	<circle cx="550.465" cy="393.331" r="21.713"/>
	<circle cx="689.979" cy="490.487" r="22.481"/>
	<circle cx="1531.283" cy="318.141" r="20.709"/>
	<circle cx="1350.464" cy="806.685" r="20.622"/>
	<circle cx="885.872" cy="80.487" r="20.61"/>
	<circle cx="509.689" cy="932.101" r="20.574"/>
	<circle cx="764.631" cy="1216.534" r="25.176"/>
	<circle cx="471.496" cy="646.416" r="20.574"/>
	<circle cx="1319.001" cy="1200.053" r="21.353"/>
	<circle cx="647.092" cy="417.994" r="21.288"/>
	<circle cx="810.238" cy="91.158" r="23.918"/>
	<circle cx="990.282" cy="1017.265" r="21.361"/>
	<circle cx="1479.314" cy="847.389" r="22.368"/>
	<circle cx="238.92" cy="918.45" r="21.735"/>
	<circle cx="826.138" cy="726.576" r="22.263"/>
	<circle cx="1723.654" cy="666.468" r="20.574"/>
	<circle cx="1023.57" cy="363.641" r="20.574"/>
	<circle cx="393.439" cy="783.878" r="22.865"/>
	<circle cx="1526.602" cy="230.82" r="26.597"/>
	<circle cx="513.635" cy="372.551" r="20.574"/>
	<circle cx="1266.082" cy="1194.662" r="23.602"/>
	<circle cx="1898.142" cy="810.355" r="21.182"/>
	<circle cx="1289.299" cy="129.838" r="15.934"/>
	<circle cx="508.15" cy="1036.394" r="21.755"/>
	<circle cx="1232.967" cy="146.471" r="14.515"/>
	<circle cx="865.123" cy="1027.425" r="17.78"/>
	<circle cx="1366.822" cy="476.338" r="17.812"/>
	<circle cx="1213.077" cy="756.725" r="15.088"/>
	<circle cx="1000.63" cy="320.797" r="14.901"/>
	<circle cx="421.741" cy="857.913" r="20.03"/>
	<circle cx="1453.321" cy="988.189" r="14.18"/>
	<circle cx="181.211" cy="554.618" r="15.958"/>
	<circle cx="897.028" cy="255.823" r="13.943"/>
	<circle cx="638.932" cy="224.269" r="13.723"/>
	<circle cx="675.527" cy="977.984" r="13.815"/>
	<circle cx="356.07" cy="202.828" r="15.737"/>
	<circle cx="1092.875" cy="1428.669" r="20.576"/>
	<circle cx="820.129" cy="426.578" r="13.723"/>
	<circle cx="1088.072" cy="1131.573" r="14.408"/>
	<circle cx="914.888" cy="1201.82" r="21.682"/>
	<circle cx="1302.566" cy="612.618" r="16.326"/>
	<circle cx="468.736" cy="153.538" r="17.527"/>
	<circle cx="496.315" cy="411.827" r="20.564"/>
	<circle cx="1645.588" cy="1232.026" r="14.891"/>
	<circle cx="1240.209" cy="350.438" r="16.473"/>
	<circle cx="666.755" cy="951.88" r="13.723"/>
	<circle cx="1093.518" cy="627.29" r="13.723"/>
	<circle cx="1258.567" cy="1482.728" r="14.869"/>
	<circle cx="1214.544" cy="1573.557" r="16.5"/>
	<circle cx="554.8" cy="150.015" r="13.723"/>
	<circle cx="253.089" cy="616.025" r="14.717"/>
	<circle cx="450.291" cy="822.831" r="20.205"/>
	<circle cx="445.311" cy="1111.191" r="13.723"/>
	<circle cx="893.746" cy="1045.113" r="15.514"/>
	<circle cx="1207.257" cy="1515.416" r="14.274"/>
	<circle cx="524.491" cy="148.535" r="13.957"/>
	<circle cx="1112.016" cy="258.063" r="13.81"/>
	<circle cx="1374.922" cy="508.482" r="13.723"/>
	<circle cx="1193.32" cy="726.997" r="16.873"/>
	<circle cx="1291.564" cy="1004.05" r="13.723"/>
	<circle cx="1514.914" cy="796.746" r="13.896"/>
	<circle cx="1207.104" cy="1359.046" r="13.723"/>
	<circle cx="1503.306" cy="1287.085" r="15.802"/>
	<circle cx="391.789" cy="949.683" r="14.336"/>
	<circle cx="1046.392" cy="116.11" r="16.424"/>
	<circle cx="1228.862" cy="1197.454" r="13.723"/>
	<circle cx="893.942" cy="448.988" r="14.096"/>
	<circle cx="642.073" cy="554.624" r="22.035"/>
	<circle cx="853.479" cy="69.109" r="13.723"/>
	<circle cx="258.568" cy="650.941" r="16.59"/>
	<circle cx="453.913" cy="461.771" r="14.584"/>
	<circle cx="969.755" cy="327.725" r="16.742"/>
	<circle cx="1211.373" cy="626.491" r="14.879"/>
	<circle cx="1319.074" cy="792.747" r="13.723"/>
	<circle cx="623.688" cy="101.29" r="15.543"/>
	<circle cx="1429.384" cy="1106.248" r="14.292"/>
	<circle cx="1544.476" cy="1458.16" r="14.095"/>
	<circle cx="231.46" cy="856.592" r="16.541"/>
	<circle cx="1194.948" cy="228.635" r="17.362"/>
	<circle cx="582.27" cy="421.017" r="14.676"/>
	<circle cx="1375.886" cy="1196.585" r="14.03"/>
	<circle cx="1064.047" cy="1402.479" r="14.553"/>
	<circle cx="1496.34" cy="366.857" r="13.723"/>
	<circle cx="719.071" cy="962.957" r="13.782"/>
	<circle cx="695.467" cy="311.142" r="15.303"/>
	<circle cx="803.398" cy="769.217" r="17.699"/>
	<circle cx="1494.338" cy="968.784" r="19.886"/>
	<circle cx="1888.96" cy="739.441" r="14.239"/>
	<circle cx="1567.416" cy="291.018" r="14.352"/>
	<circle cx="1022.505" cy="863.432" r="15.447"/>
	<circle cx="609.7" cy="569.808" r="13.723"/>
	<circle cx="1770.073" cy="567.034" r="15.44"/>
	<circle cx="819.302" cy="1128.103" r="13.723"/>
	<circle cx="753.943" cy="1175.651" r="14.613"/>
	<circle cx="1408.555" cy="1343.701" r="13.825"/>
	<circle cx="1724.38" cy="708.015" r="13.908"/>
	<circle cx="1589.002" cy="619.089" r="16.954"/>
	<circle cx="1251.048" cy="1157.93" r="14.56"/>
	<circle cx="1124.703" cy="450.75" r="16.207"/>
	<circle cx="1609.995" cy="314.94" r="16.649"/>
	<circle cx="748.097" cy="483.943" r="13.723"/>
	<circle cx="224.874" cy="355.598" r="13.723"/>
	<circle cx="1360.275" cy="376.628" r="13.723"/>
	<circle cx="717.142" cy="811.77" r="13.723"/>
	<circle cx="1847.221" cy="1175.51" r="16.566"/>
	<circle cx="1667.716" cy="882.911" r="14.495"/>
	<circle cx="891.729" cy="187.494" r="15.32"/>
	<circle cx="827.688" cy="587.8" r="13.723"/>
	<circle cx="132.284" cy="430.397" r="19.107"/>
	<circle cx="1080.733" cy="281.818" r="17.615"/>
	<circle cx="1052.789" cy="842.457" r="15.055"/>
	<circle cx="1799.354" cy="917.27" r="17.231"/>
	<circle cx="889.545" cy="1011.515" r="9.699"/>
	<circle cx="372.269" cy="962.748" r="9.153"/>
	<circle cx="776.12" cy="1167.107" r="9.153"/>
	<circle cx="889.935" cy="135.599" r="12.377"/>
	<circle cx="1231.124" cy="782.124" r="9.25"/>
	<circle cx="1233.556" cy="1272.777" r="14.016"/>
	<circle cx="1401.482" cy="1075.886" r="9.153"/>
	<circle cx="552.203" cy="788.289" r="16.674"/>
	<circle cx="1418.33" cy="1486.11" r="14.284"/>
	<circle cx="1209.047" cy="1541.654" r="11.963"/>
	<circle cx="698.726" cy="84.342" r="10.974"/>
	<circle cx="474.805" cy="1111.528" r="9.407"/>
	<circle cx="1181.262" cy="859.67" r="12.468"/>
	<circle cx="1667.63" cy="1222.42" r="9.153"/>
	<circle cx="1802.042" cy="832.631" r="12.377"/>
	<circle cx="1064.411" cy="1030.277" r="13.152"/>
	<circle cx="1680.072" cy="1075.326" r="9.595"/>
	<circle cx="1612.061" cy="1024.276" r="17.183"/>
	<circle cx="1349.368" cy="1202.967" r="9.153"/>
	<circle cx="1251.154" cy="104.445" r="14.417"/>
	<circle cx="696.802" cy="951.591" r="11.22"/>
	<circle cx="1449.084" cy="164.531" r="11.039"/>
	<circle cx="603.426" cy="391.028" r="9.153"/>
	<circle cx="578.955" cy="125.98" r="13.932"/>
	<circle cx="266.038" cy="806.025" r="12.361"/>
	<circle cx="1068.536" cy="1113.362" r="11.164"/>
	<circle cx="263.32" cy="733.75" r="10.345"/>
	<circle cx="1366.688" cy="291.496" r="9.153"/>
	<circle cx="1476.888" cy="630.695" r="9.279"/>
	<circle cx="1138.761" cy="882.765" r="9.323"/>
	<circle cx="1802.838" cy="1100.255" r="10.278"/>
	<circle cx="565.8" cy="892.571" r="11.53"/>
	<circle cx="1902.179" cy="1065.298" r="12.934"/>
	<circle cx="1459.776" cy="487.986" r="16.944"/>
	<circle cx="1582.026" cy="652.079" r="14.073"/>
	<circle cx="497.4" cy="153.137" r="11.139"/>
	<circle cx="805.168" cy="268.412" r="11.197"/>
	<circle cx="659.561" cy="96.326" r="14.553"/>
	<circle cx="1394.393" cy="719.659" r="13.142"/>
	<circle cx="1120.863" cy="282.252" r="9.153"/>
	<circle cx="1436.693" cy="1347.886" r="14.125"/>
	<circle cx="1361.588" cy="142.961" r="14.465"/>
	<circle cx="93.428" cy="747.904" r="9.319"/>
	<circle cx="1489.722" cy="796.598" r="9.965"/>
	<circle cx="1398.431" cy="1287.31" r="10.135"/>
	<circle cx="702.184" cy="979.756" r="10.038"/>
	<circle cx="1037.667" cy="325.563" r="17.215"/>
	<circle cx="774.98" cy="893.379" r="9.153"/>
	<circle cx="669.24" cy="443.093" r="9.857"/>
	<circle cx="1343.388" cy="759.523" r="12.257"/>
	<circle cx="1139.92" cy="471.038" r="9.153"/>
	<circle cx="1043.713" cy="402.544" r="9.712"/>
	<circle cx="1849.603" cy="678.936" r="11.302"/>
	<circle cx="802.34" cy="1010.338" r="11.948"/>
	<circle cx="1901.345" cy="1087.37" r="9.153"/>
	<circle cx="426.204" cy="450.248" r="13.862"/>
	<circle cx="1554.417" cy="1283.415" r="11.727"/>
	<circle cx="1565.903" cy="952.445" r="9.153"/>
	<circle cx="683.871" cy="148.289" r="15.2"/>
	<circle cx="1627.882" cy="646.999" r="9.933"/>
	<circle cx="1163.912" cy="709.216" r="9.486"/>
	<circle cx="1238.596" cy="1030.633" r="16.421"/>
	<circle cx="1143.285" cy="978.13" r="20.628"/>
	<circle cx="637.05" cy="713.076" r="11.758"/>
	<circle cx="1279.275" cy="331.43" r="9.804"/>
	<circle cx="402.826" cy="650.353" r="13.371"/>
	<circle cx="778.312" cy="472.447" r="11.621"/>
	<circle cx="1440.134" cy="1376.845" r="9.891"/>
	<circle cx="624.945" cy="454.648" r="11.027"/>
	<circle cx="1795.536" cy="561.804" r="10.554"/>
	<circle cx="1835.969" cy="814.99" r="9.153"/>
	<circle cx="1811.262" cy="857.54" r="14.183"/>
	<circle cx="163.808" cy="572.721" r="9.153"/>
	<circle cx="170.384" cy="590.843" r="9.153"/>
	<circle cx="1335.238" cy="521.91" r="9.617"/>
	<circle cx="1616.598" cy="735.518" r="9.153"/>
	<circle cx="435.587" cy="476.859" r="9.153"/>
	<circle cx="1480.164" cy="935.187" r="10.529"/>
	<circle cx="851.466" cy="213.586" r="9.153"/>
	<circle cx="353.54" cy="956.065" r="10.732"/>
	<circle cx="1170.852" cy="429.79" r="11.949"/>
	<circle cx="780.036" cy="669.844" r="12.165"/>
	<circle cx="1420.918" cy="1168.429" r="9.228"/>
	<circle cx="1313.617" cy="123.674" r="9.153"/>
	<circle cx="789.668" cy="792.834" r="9.153"/>
	<circle cx="137.185" cy="781.403" r="14.884"/>
	<circle cx="395.321" cy="816.441" r="9.753"/>
	<circle cx="978.777" cy="887.23" r="14.158"/>
	<circle cx="353.102" cy="780.007" r="17.657"/>
	<circle cx="569.842" cy="807.155" r="9.153"/>
	<circle cx="1022" cy="153.573" r="9.466"/>
	<circle cx="899.153" cy="111.995" r="12.963"/>
	<circle cx="139.463" cy="809.246" r="13.052"/>
	<circle cx="1581.766" cy="782.758" r="10.787"/>
	<circle cx="1457.574" cy="1295.7" r="12.411"/>
	<circle cx="1746.244" cy="646.411" r="9.635"/>
	<circle cx="1091.193" cy="869.991" r="9.836"/>
	<circle cx="486.49" cy="1065.07" r="12.453"/>
	<circle cx="1526.308" cy="974.172" r="12.536"/>
	<circle cx="825.501" cy="1042.296" r="9.557"/>
	<circle cx="1828.616" cy="1194.848" r="10.268"/>
	<circle cx="775.84" cy="1008.149" r="13.843"/>
	<circle cx="481.057" cy="616.749" r="10.595"/>
	<circle cx="1131.797" cy="947.598" r="9.153"/>
	<circle cx="453.284" cy="856.275" r="10.82"/>
	<circle cx="1619.586" cy="1404.6" r="14.362"/>
	<circle cx="610.184" cy="599.615" r="12.308"/>
	<circle cx="1033.171" cy="169.528" r="10.011"/>
	<circle cx="93.769" cy="541.17" r="6.105"/>
	<circle cx="793.049" cy="682.668" r="6.105"/>
	<circle cx="1734.902" cy="791.131" r="10.499"/>
	<circle cx="976.89" cy="1041.567" r="6.386"/>
	<circle cx="542.596" cy="1189.929" r="7.932"/>
	<circle cx="1528.897" cy="284.783" r="11.479"/>
	<circle cx="601.259" cy="226.048" r="9.018"/>
	<circle cx="138.523" cy="578.447" r="6.682"/>
	<circle cx="1387.54" cy="1180.166" r="6.105"/>
	<circle cx="227.743" cy="878.931" r="6.105"/>
	<circle cx="1362.849" cy="163.492" r="6.105"/>
	<circle cx="922.953" cy="587.442" r="6.105"/>
	<circle cx="322.335" cy="459.225" r="8.92"/>
	<circle cx="1049.161" cy="573.621" r="6.706"/>
	<circle cx="1073.059" cy="641.57" r="10.895"/>
	<circle cx="568.034" cy="180.888" r="11.653"/>
	<circle cx="1437.564" cy="1000.964" r="6.105"/>
	<circle cx="1141.521" cy="1172.969" r="7.31"/>
	<circle cx="1215.151" cy="734.816" r="6.105"/>
	<circle cx="808.09" cy="595.18" r="6.105"/>
	<circle cx="655.171" cy="929.785" r="9.238"/>
	<circle cx="1833.043" cy="610.61" r="6.105"/>
	<circle cx="1148.445" cy="250.315" r="7.081"/>
	<circle cx="1328.433" cy="946.637" r="13.025"/>
	<circle cx="1170.581" cy="236.173" r="8.144"/>
	<circle cx="783.203" cy="636.586" r="10.377"/>
	<circle cx="1666.937" cy="844.248" r="13.443"/>
	<circle cx="445.873" cy="160.872" r="6.483"/>
	<circle cx="1423.955" cy="738.839" r="11.608"/>
	<circle cx="774.266" cy="112.517" r="16.376"/>
	<circle cx="982.423" cy="359.609" r="14.546"/>
	<circle cx="311.443" cy="350.269" r="6.198"/>
	<circle cx="663.379" cy="1121.884" r="9.207"/>
	<circle cx="508.227" cy="965.573" r="7.941"/>
	<circle cx="1143.455" cy="710.644" r="11.021"/>
	<circle cx="1558.227" cy="241.872" r="6.904"/>
	<circle cx="67.871" cy="548.043" r="14.254"/>
	<circle cx="1829.327" cy="1128.065" r="7.184"/>
	<circle cx="1169.728" cy="982.17" r="6.121"/>
	<circle cx="623.58" cy="760.804" r="9.439"/>
	<circle cx="1074.742" cy="229.347" r="10.528"/>
	<circle cx="1261.045" cy="1028.779" r="6.105"/>
	<circle cx="647.606" cy="453.43" r="11.667"/>
	<circle cx="880.239" cy="118.29" r="6.972"/>
	<circle cx="1390.076" cy="1351.165" r="6.105"/>
	<circle cx="1543.14" cy="790.602" r="12.816"/>
	<circle cx="265.262" cy="365.051" r="8.68"/>
	<circle cx="1053.769" cy="1311.557" r="6.105"/>
	<circle cx="1365.259" cy="198.234" r="6.105"/>
	<circle cx="1090.437" cy="234.856" r="6.105"/>
	<circle cx="626.276" cy="399.741" r="6.398"/>
	<circle cx="762.277" cy="792.549" r="8.813"/>
	<circle cx="1584.983" cy="1007.483" r="6.244"/>
	<circle cx="1376.084" cy="709.385" r="7.853"/>
	<circle cx="1381.782" cy="736.795" r="6.41"/>
	<circle cx="1044.916" cy="467.74" r="6.321"/>
	<circle cx="971.136" cy="604.9" r="7.484"/>
	<circle cx="585.583" cy="586.519" r="7.079"/>
	<circle cx="797.795" cy="655.893" r="10.419"/>
	<circle cx="1565.947" cy="619.504" r="6.105"/>
	<circle cx="707.942" cy="642.402" r="6.232"/>
	<circle cx="810.764" cy="804.669" r="6.406"/>
	<circle cx="286.82" cy="790.839" r="8.227"/>
	<circle cx="272.727" cy="933.347" r="9.822"/>
	<circle cx="839.195" cy="1034.696" r="6.105"/>
	<circle cx="1256.707" cy="1438.714" r="10.884"/>
	<circle cx="1449.108" cy="1312.167" r="6.105"/>
	<circle cx="1478.509" cy="217.307" r="9.8"/>
	<circle cx="1479.194" cy="908.428" r="6.105"/>
	<circle cx="1417.146" cy="1303.146" r="12.631"/>
	<circle cx="1874.882" cy="1075.948" r="6.105"/>
	<circle cx="133.86" cy="566.541" r="6.105"/>
	<circle cx="320.025" cy="771.431" r="8.571"/>
	<circle cx="653.07" cy="372.774" r="9.08"/>
	<circle cx="1709.867" cy="1234.219" r="8.645"/>
	<circle cx="1415.265" cy="519.452" r="6.305"/>
	<circle cx="1057.168" cy="613.782" r="6.152"/>
	<circle cx="1139.35" cy="271.384" r="6.636"/>
	<circle cx="1697.934" cy="1225.551" r="6.105"/>
	<circle cx="408.055" cy="700.493" r="6.105"/>
	<circle cx="510.671" cy="1006.81" r="6.882"/>
	<circle cx="1603.41" cy="696.283" r="8.492"/>
	<circle cx="1233.595" cy="1122.692" r="12.762"/>
	<circle cx="1083.928" cy="1097.17" r="7.151"/>
	<circle cx="1457.007" cy="1417.435" r="8.261"/>
	<circle cx="1206.265" cy="776.794" r="6.105"/>
	<circle cx="70.009" cy="588.653" r="10.055"/>
	<circle cx="1043.387" cy="561.301" r="6.899"/>
	<circle cx="1840.276" cy="630.117" r="11.284"/>
	<circle cx="582.014" cy="228.08" r="10.334"/>
	<circle cx="1690.893" cy="836.957" r="7.847"/>
	<circle cx="649.541" cy="499.108" r="14.113"/>
	<circle cx="1528.73" cy="1285.6" r="9.083"/>
	<circle cx="483.297" cy="552.557" r="9.916"/>
	<circle cx="806.77" cy="1148.426" r="6.105"/>
	<circle cx="402.338" cy="739.056" r="6.868"/>
	<circle cx="1501.389" cy="1133.187" r="6.291"/>
	<circle cx="1600.371" cy="733.004" r="7.267"/>
	<circle cx="687.484" cy="169.286" r="6.105"/>
	<circle cx="1877.545" cy="1159.2" r="6.248"/>
	<circle cx="1422.946" cy="1372.991" r="7.724"/>
	<circle cx="1620.053" cy="524.673" r="6.105"/>
	<circle cx="1802.913" cy="893.304" r="6.997"/>
	<circle cx="603.972" cy="1147.793" r="19.519"/>
	<circle cx="1617.737" cy="1166.679" r="6.105"/>
	<circle cx="940.381" cy="172.768" r="6.105"/>
	<circle cx="1549.143" cy="255.919" r="7.138"/>
	<circle cx="1641.938" cy="1373.833" r="7.337"/>
	<circle cx="1495.318" cy="1145.472" r="6.105"/>
	<circle cx="1122.963" cy="695.949" r="6.296"/>
	<circle cx="1636.197" cy="331.021" r="7.541"/>
	<circle cx="1262.086" cy="356.022" r="6.105"/>
	<circle cx="460.159" cy="252.295" r="15.022"/>
	<circle cx="1128.127" cy="1442.136" r="9.78"/>
	<circle cx="1821.152" cy="1096.974" r="8.328"/>
	<circle cx="1487.387" cy="1256.125" r="10.348"/>
	<circle cx="1450.891" cy="849.579" r="6.139"/>
	<circle cx="1205.792" cy="815.252" r="6.828"/>
	<circle cx="72.851" cy="716.807" r="6.794"/>
	<circle cx="942.574" cy="1199.449" r="6.105"/>
	<circle cx="1286.117" cy="563.321" r="7.709"/>
	<circle cx="681.649" cy="84.584" r="6.105"/>
	<circle cx="539.68" cy="1165.362" r="9.707"/>
	<circle cx="657.022" cy="1146.023" r="9.085"/>
	<circle cx="1671.33" cy="372.839" r="12.294"/>
	<circle cx="654.502" cy="1234.033" r="11.592"/>
	<circle cx="1609.218" cy="749.519" r="6.105"/>
	<circle cx="512.044" cy="341.49" r="10.528"/>
	<circle cx="1146.715" cy="1154.622" r="11.758"/>
	<circle cx="1077.304" cy="76.718" r="6.775"/>
	<circle cx="267.291" cy="777.788" r="7.838"/>
	<circle cx="1408.553" cy="443.044" r="10.125"/>
	<circle cx="1862.022" cy="796.959" r="10.987"/>
	<circle cx="1568.644" cy="636.977" r="6.105"/>
	<circle cx="1050.403" cy="87.683" r="12.284"/>
	<circle cx="1140.236" cy="1572.674" r="6.105"/>
	<circle cx="1426.244" cy="674.282" r="7.35"/>
	<circle cx="1574.494" cy="1278.297" r="8.991"/>
	<circle cx="586.959" cy="1070.549" r="13.582"/>
	<circle cx="1477.701" cy="197.361" r="8.168"/>
	<circle cx="1387.189" cy="768.235" r="7.4"/>
	<circle cx="1875.941" cy="777.234" r="12.254"/>
	<circle cx="1210.636" cy="375.517" r="9.646"/>
	<circle cx="1451.285" cy="642.158" r="6.237"/>
	<circle cx="1755.852" cy="1249.75" r="8.32"/>
	<circle cx="1547.271" cy="294.583" r="6.105"/>
	<circle cx="1479.463" cy="615.528" r="6.105"/>
	<circle cx="1389.242" cy="1496.989" r="8.883"/>
	<circle cx="893.406" cy="277.023" r="7.564"/>
	<circle cx="1911.873" cy="972.458" r="7.726"/>
	<circle cx="1070.314" cy="1050.417" r="7.835"/>
	<circle cx="954.373" cy="142.356" r="6.105"/>
	<circle cx="960.518" cy="1202.459" r="12.09"/>
	<circle cx="1066.222" cy="1429.901" r="6.105"/>
	<circle cx="1210.125" cy="170.706" r="12.574"/>
	<circle cx="1511.588" cy="458.606" r="11.185"/>
	<circle cx="1402.353" cy="146.43" r="11.463"/>
	<circle cx="574.651" cy="769.761" r="6.105"/>
	<circle cx="284.375" cy="315.078" r="9.614"/>
	<circle cx="977.192" cy="1310.252" r="7.977"/>
	<circle cx="522.774" cy="408.483" r="6.105"/>
	<circle cx="1509.091" cy="875.85" r="8.58"/>
	<circle cx="1173.764" cy="1569.887" r="6.105"/>
	<circle cx="374.232" cy="417.235" r="6.105"/>
	<circle cx="614.737" cy="232.908" r="6.105"/>
	<circle cx="1005.864" cy="342.316" r="7.143"/>
	<circle cx="1196.67" cy="996.3" r="11.08"/>
	<circle cx="920.889" cy="87.191" r="15.043"/>
	<circle cx="1137.063" cy="243.656" r="6.105"/>
	<circle cx="201.531" cy="348.181" r="10.77"/>
	<circle cx="317.346" cy="221.287" r="10.216"/>
	<circle cx="122.826" cy="744.207" r="9.963"/>
	<circle cx="1872.694" cy="823.053" r="7.259"/>
	<circle cx="815.261" cy="1067.9" r="7.097"/>
	<circle cx="1205.204" cy="1390.519" r="8.717"/>
	<circle cx="1642.858" cy="1354.77" r="11.747"/>
	<circle cx="1138.394" cy="683.403" r="6.105"/>
	<circle cx="959.488" cy="767.601" r="6.105"/>
	<circle cx="465.504" cy="884.939" r="8.422"/>
	<circle cx="1229.711" cy="1097.88" r="10.563"/>
	<circle cx="92.423" cy="603.542" r="6.956"/>
	<circle cx="1339.402" cy="128.457" r="11.615"/>
	<circle cx="1375.897" cy="673.804" r="8.222"/>
	<circle cx="1156.787" cy="1491.478" r="6.472"/>
	<circle cx="267.797" cy="789.687" r="4.072"/>
	<circle cx="245.85" cy="683.549" r="9.009"/>
	<circle cx="464.064" cy="195.097" r="6.018"/>
	<circle cx="252.113" cy="597.262" r="4.072"/>
	<circle cx="284.761" cy="811.92" r="7.267"/>
	<circle cx="644.157" cy="1050.025" r="7.163"/>
	<circle cx="1588.207" cy="1045.397" r="5.078"/>
	<circle cx="939.544" cy="716.522" r="10.131"/>
	<circle cx="1353.106" cy="199.477" r="4.072"/>
	<circle cx="1738.76" cy="1243.972" r="9.722"/>
	<circle cx="753.755" cy="951.01" r="11.278"/>
	<circle cx="1589.233" cy="271.62" r="8.157"/>
	<circle cx="69.147" cy="641.591" r="6.071"/>
	<circle cx="381.086" cy="807.815" r="4.072"/>
	<circle cx="718.154" cy="990.71" r="5.887"/>
	<circle cx="384.008" cy="202.461" r="5.72"/>
	<circle cx="1330.276" cy="923.243" r="4.34"/>
	<circle cx="1507.012" cy="207.223" r="4.072"/>
	<circle cx="1916.163" cy="1003.464" r="4.091"/>
	<circle cx="1917.262" cy="855.552" r="4.072"/>
	<circle cx="1573.098" cy="1447.054" r="10.704"/>
	<circle cx="686.812" cy="104.981" r="12.857"/>
	<circle cx="1091.322" cy="438.643" r="9.451"/>
	<circle cx="1676.217" cy="1269.821" r="4.318"/>
	<circle cx="1633.503" cy="1208.863" r="11.234"/>
	<circle cx="1165.757" cy="298.497" r="4.144"/>
	<circle cx="291.767" cy="758.269" r="6.398"/>
	<circle cx="1497.87" cy="624.09" r="12.718"/>
	<circle cx="1104.503" cy="1509.123" r="7.895"/>
	<circle cx="1460.356" cy="626.33" r="7.078"/>
	<circle cx="560.512" cy="229.579" r="4.072"/>
	<circle cx="84.046" cy="576.301" r="8.643"/>
	<circle cx="179.4" cy="896.683" r="4.838"/>
	<circle cx="970.331" cy="769.375" r="4.882"/>
	<circle cx="959.975" cy="641.693" r="8.272"/>
	<circle cx="1045.276" cy="1280.846" r="5.997"/>
	<circle cx="1094.513" cy="727.564" r="6.454"/>
	<circle cx="1768.016" cy="924.784" r="11.579"/>
	<circle cx="1033.884" cy="520.603" r="4.072"/>
	<circle cx="1232.874" cy="799.002" r="7.719"/>
	<circle cx="1257.377" cy="320.431" r="12.423"/>
	<circle cx="1836.476" cy="1154.335" r="4.573"/>
	<circle cx="581.987" cy="107.231" r="5.061"/>
	<circle cx="1077.936" cy="865.785" r="4.072"/>
	<circle cx="816.09" cy="291.475" r="6.608"/>
	<circle cx="1360.032" cy="1172.056" r="12.41"/>
	<circle cx="1832.322" cy="1104.227" r="4.991"/>
	<circle cx="1828.699" cy="644.924" r="7.51"/>
	<circle cx="312.472" cy="564.039" r="4.072"/>
	<circle cx="1634.991" cy="518.567" r="8.263"/>
	<circle cx="1516.479" cy="912.066" r="6.433"/>
	<circle cx="1512.87" cy="855.827" r="4.072"/>
	<circle cx="311.689" cy="963.902" r="5.932"/>
	<circle cx="774.594" cy="652.082" r="6.412"/>
	<circle cx="1600.203" cy="760.395" r="5.356"/>
	<circle cx="253.223" cy="818.499" r="5.523"/>
	<circle cx="933.593" cy="59.271" r="6.531"/>
	<circle cx="860.255" cy="532.427" r="5.4"/>
	<circle cx="1470.246" cy="1280.882" r="7.088"/>
	<circle cx="537.415" cy="415.782" r="4.255"/>
	<circle cx="1182.308" cy="440.99" r="4.072"/>
	<circle cx="63.493" cy="629.138" r="4.97"/>
	<circle cx="1187.497" cy="972.018" r="12.941"/>
	<circle cx="1411.282" cy="1318.785" r="4.072"/>
	<circle cx="1340.485" cy="263.936" r="6.813"/>
	<circle cx="488.638" cy="170.756" r="5.969"/>
	<circle cx="296.237" cy="353.131" r="4.072"/>
	<circle cx="1425.699" cy="368.82" r="10.697"/>
	<circle cx="696.515" cy="636.837" r="6.373"/>
	<circle cx="1223.023" cy="941.316" r="7.865"/>
	<circle cx="1446.314" cy="1006.359" r="4.173"/>
	<circle cx="1677.354" cy="452.589" r="4.33"/>
	<circle cx="474.997" cy="175.533" r="5.341"/>
	<circle cx="639.919" cy="1033.42" r="5.361"/>
	<circle cx="1092.785" cy="93.107" r="9.911"/>
	<circle cx="647.988" cy="517.227" r="4.072"/>
	<circle cx="1589.289" cy="315.747" r="4.072"/>
	<circle cx="1073.426" cy="86.848" r="4.072"/>
	<circle cx="483.651" cy="1045.793" r="4.487"/>
	<circle cx="1783.495" cy="1233.399" r="5.695"/>
	<circle cx="1271.851" cy="141.472" r="4.998"/>
	<circle cx="349.406" cy="499.812" r="5.308"/>
	<circle cx="1447.739" cy="1186.023" r="9.517"/>
	<circle cx="1232.124" cy="125.789" r="4.072"/>
	<circle cx="1097.583" cy="247.507" r="4.072"/>
	<circle cx="755.724" cy="871.964" r="7.562"/>
	<circle cx="1425.012" cy="1077.727" r="9.381"/>
	<circle cx="177.16" cy="470.463" r="4.425"/>
	<circle cx="799.035" cy="1207.426" r="6.327"/>
	<circle cx="1593.554" cy="1358.785" r="5.7"/>
	<circle cx="1445.823" cy="1171.038" r="5.59"/>
	<circle cx="1361.544" cy="771.418" r="9.448"/>
	<circle cx="1491.489" cy="206.468" r="4.635"/>
	<circle cx="378.719" cy="210.702" r="4.072"/>
	<circle cx="1605.746" cy="293.905" r="4.811"/>
	<circle cx="916.263" cy="1015.706" r="10.055"/>
	<circle cx="1441.266" cy="1144.818" r="4.662"/>
	<circle cx="1300.463" cy="341.335" r="10.795"/>
	<circle cx="991.201" cy="339.543" r="6.082"/>
	<circle cx="1441.822" cy="1399.334" r="12.661"/>
	<circle cx="611.512" cy="1200.369" r="4.072"/>
	<circle cx="1170.483" cy="971.999" r="4.072"/>
	<circle cx="1611.656" cy="1356.033" r="12.61"/>
	<circle cx="1309.154" cy="512.642" r="5.155"/>
	<circle cx="360.814" cy="411.147" r="6.734"/>
	<circle cx="1077.04" cy="1312.508" r="4.68"/>
	<circle cx="1167.229" cy="1141.169" r="4.479"/>
	<circle cx="501.626" cy="989.815" r="5.952"/>
	<circle cx="258.048" cy="688.495" r="4.153"/>
	<circle cx="704.499" cy="161.49" r="5.859"/>
	<circle cx="885.163" cy="1227.373" r="11.274"/>
	<circle cx="997.083" cy="1323.047" r="15.674"/>
	<circle cx="1027.014" cy="395.716" r="5.181"/>
	<circle cx="255.243" cy="291.662" r="11.379"/>
	<circle cx="663.965" cy="1003.792" r="10.497"/>
	<circle cx="1186.564" cy="1505.023" r="8.882"/>
	<circle cx="1633.214" cy="1010.003" r="4.072"/>
	<circle cx="956.229" cy="746.325" r="7.698"/>
	<circle cx="985.348" cy="149.102" r="4.072"/>
	<circle cx="1807.591" cy="1079.917" r="10.055"/>
	<circle cx="557.019" cy="821.594" r="4.287"/>
	<circle cx="858.514" cy="114.376" r="4.216"/>
	<circle cx="1839.207" cy="662.604" r="8.058"/>
	<circle cx="1066.491" cy="574.848" r="7.015"/>
	<circle cx="1518.001" cy="444.762" r="4.072"/>
	<circle cx="64.143" cy="618.718" r="5.471"/>
	<circle cx="865.758" cy="1061.466" r="4.456"/>
	<circle cx="1159.251" cy="290.321" r="6.305"/>
	<circle cx="59.749" cy="679.766" r="6.847"/>
	<circle cx="467.397" cy="610.287" r="4.516"/>
	<circle cx="1759.479" cy="531.611" r="19.079"/>
	<circle cx="1786.042" cy="1223.97" r="4.072"/>
	<circle cx="183.72" cy="735.508" r="4.248"/>
	<circle cx="1191.289" cy="422.378" r="9.79"/>
	<circle cx="1056.056" cy="631.334" r="8.952"/>
	<circle cx="1000.275" cy="1052.426" r="11.891"/>
	<circle cx="1755.109" cy="657.777" r="4.779"/>
	<circle cx="1101.946" cy="466.568" r="11.507"/>
	<circle cx="674.329" cy="1238.443" r="5.444"/>
	<circle cx="610.557" cy="442.604" r="7.737"/>
	<circle cx="1382.972" cy="747.209" r="4.072"/>
	<circle cx="354.947" cy="803.586" r="5.994"/>
	<circle cx="1030.337" cy="139.069" r="7.262"/>
	<circle cx="1698.792" cy="816.512" r="9.521"/>
	<circle cx="1815.79" cy="1139.527" r="4.072"/>
	<circle cx="994.218" cy="1179.233" r="12.04"/>
	<circle cx="642.984" cy="104.816" r="4.072"/>
	<circle cx="899.715" cy="238.009" r="4.072"/>
	<circle cx="1509.541" cy="385.943" r="6.463"/>
	<circle cx="415.237" cy="680.67" r="14.194"/>
	<circle cx="1922.237" cy="987.653" r="5.781"/>
	<circle cx="1206.63" cy="941.735" r="8.534"/>
	<circle cx="527.063" cy="571.25" r="6.891"/>
	<circle cx="467.752" cy="567.547" r="4.072"/>
	<circle cx="1279.731" cy="1419.861" r="13.523"/>
	<circle cx="689.95" cy="922.722" r="4.072"/>
	<circle cx="1910.487" cy="1050.198" r="4.301"/>
	<circle cx="1505.979" cy="911.745" r="4.072"/>
	<circle cx="206.703" cy="456.701" r="4.943"/>
	<circle cx="1087.399" cy="1478.894" r="6.737"/>
	<circle cx="1572.898" cy="1119.91" r="7.259"/>
	<circle cx="1219.217" cy="804.726" r="7.089"/>
	<circle cx="302.353" cy="333.063" r="4.587"/>
	<circle cx="632.809" cy="1180.358" r="7.73"/>
	<circle cx="1457.523" cy="1006.434" r="4.072"/>
	<circle cx="1468.618" cy="1181.767" r="11.791"/>
	<circle cx="1251.879" cy="1253.482" r="4.128"/>
	<circle cx="1046.936" cy="415.946" r="4.072"/>
	<circle cx="780.597" cy="87.387" r="5.961"/>
	<circle cx="775.25" cy="77.631" r="5.163"/>
	<circle cx="1273.305" cy="108.823" r="8.163"/>
	<circle cx="564.567" cy="825.186" r="4.072"/>
	<circle cx="1018.482" cy="811.145" r="8.779"/>
	<circle cx="1708.454" cy="1065.74" r="8.719"/>
	<circle cx="244.233" cy="666.711" r="4.721"/>
	<circle cx="403.428" cy="757.791" r="5.069"/>
	<circle cx="1511.844" cy="824.607" r="14.064"/>
	<circle cx="1050.221" cy="1197.5" r="8.58"/>
	<circle cx="1468.446" cy="1315.894" r="5.398"/>
	<circle cx="575.879" cy="581.025" r="4.072"/>
	<circle cx="1273.779" cy="318.689" r="4.072"/>
	<circle cx="1452.798" cy="1339.416" r="4.072"/>
	<circle cx="897.718" cy="1022.599" r="4.072"/>
	<circle cx="1009.013" cy="157.397" r="4.072"/>
	<circle cx="1520.55" cy="614.347" r="4.166"/>
	<circle cx="299.028" cy="792.34" r="4.072"/>
	<circle cx="1076.96" cy="578.501" r="4.072"/>
	<circle cx="949.526" cy="868.272" r="15.103"/>
	<circle cx="1571.519" cy="320.016" r="12.804"/>
	<circle cx="1825.927" cy="1150.605" r="6.616"/>
	<circle cx="1359.799" cy="1500.741" r="4.888"/>
	<circle cx="372.722" cy="945.463" r="5.193"/>
	<circle cx="1397.171" cy="756.498" r="7.155"/>
	<circle cx="1647.008" cy="1044.976" r="6.033"/>
	<circle cx="949.351" cy="1190.26" r="4.45"/>
	<circle cx="1476.587" cy="597.171" r="12.476"/>
	<circle cx="1630.939" cy="1370.799" r="4.072"/>
	<circle cx="593.447" cy="405.555" r="4.402"/>
	<circle cx="1245.703" cy="1428.584" r="4.072"/>
	<circle cx="1562.527" cy="1309.467" r="5.58"/>
	<circle cx="1138.482" cy="287.168" r="7.102"/>
	<circle cx="1146.508" cy="871.836" r="4.072"/>
	<circle cx="1473.036" cy="504.29" r="4.072"/>
	<circle cx="1393.003" cy="501.081" r="4.072"/>
	<circle cx="1166.598" cy="102.884" r="4.072"/>
	<circle cx="816.445" cy="223.297" r="15.697"/>
	<circle cx="216.415" cy="618.533" r="7.854"/>
	<circle cx="1525.843" cy="623.705" r="6.585"/>
	<circle cx="211.114" cy="607.85" r="4.072"/>
	<circle cx="475.374" cy="519.454" r="4.126"/>
	<circle cx="897.934" cy="574.547" r="8.846"/>
	<circle cx="803.012" cy="120.975" r="4.798"/>
	<circle cx="1243.99" cy="785.58" r="4.072"/>
	<circle cx="743.044" cy="830.196" r="6.476"/>
	<circle cx="665.5" cy="456.531" r="4.091"/>
	<circle cx="657.467" cy="1018.121" r="5.236"/>
	<circle cx="1538.084" cy="340.558" r="2.716"/>
	<circle cx="1352.967" cy="187.291" r="7.53"/>
	<circle cx="1575.258" cy="1130.526" r="3.616"/>
	<circle cx="1199.882" cy="982.883" r="2.716"/>
	<circle cx="1136.663" cy="930.785" r="6.665"/>
	<circle cx="825.437" cy="1237.659" r="11.165"/>
	<circle cx="659.298" cy="586.161" r="8.527"/>
	<circle cx="1592.284" cy="1389.546" r="5.798"/>
	<circle cx="734.531" cy="657.859" r="2.891"/>
	<circle cx="1020.164" cy="316.029" r="2.716"/>
	<circle cx="1490.743" cy="482.547" r="5.956"/>
	<circle cx="1151.404" cy="678.451" r="3.918"/>
	<circle cx="1188.461" cy="843.506" r="5.226"/>
	<circle cx="1077.883" cy="253.29" r="11.055"/>
	<circle cx="93.197" cy="727.59" r="8.047"/>
	<circle cx="1286.838" cy="585.506" r="2.716"/>
	<circle cx="1291.522" cy="1441.436" r="4.631"/>
	<circle cx="1351.446" cy="165.874" r="5.544"/>
	<circle cx="1635.479" cy="1398.295" r="2.736"/>
	<circle cx="675.818" cy="1041.288" r="4.176"/>
	<circle cx="542.649" cy="370.172" r="2.728"/>
	<circle cx="293.844" cy="958.591" r="3.784"/>
	<circle cx="630.134" cy="1198.216" r="9.979"/>
	<circle cx="911.366" cy="268.026" r="2.813"/>
	<circle cx="1148.137" cy="1494.576" r="2.716"/>
	<circle cx="808.795" cy="300.525" r="2.716"/>
	<circle cx="218.699" cy="332.394" r="10.289"/>
	<circle cx="1760.021" cy="1066.812" r="5.127"/>
	<circle cx="505.499" cy="1060.72" r="2.716"/>
	<circle cx="1038.487" cy="457.644" r="2.716"/>
	<circle cx="1621.201" cy="1248.821" r="2.716"/>
	<circle cx="1305.328" cy="1020.138" r="7.449"/>
	<circle cx="154.434" cy="802.207" r="2.716"/>
	<circle cx="1429.804" cy="1088.835" r="2.716"/>
	<circle cx="627.644" cy="1049.661" r="5.815"/>
	<circle cx="1320.03" cy="1025.827" r="2.716"/>
	<circle cx="1528.957" cy="1297.397" r="2.716"/>
	<circle cx="1274.859" cy="787.151" r="4.978"/>
	<circle cx="1315.167" cy="567.518" r="3.492"/>
	<circle cx="1612.174" cy="672.662" r="6.483"/>
	<circle cx="1345.016" cy="1170.233" r="2.716"/>
	<circle cx="1326.018" cy="819.171" r="6.828"/>
	<circle cx="1187.976" cy="1281.596" r="3.871"/>
	<circle cx="669.243" cy="475.07" r="3.358"/>
	<circle cx="1131.82" cy="1493.819" r="10.204"/>
	<circle cx="396.566" cy="220.347" r="2.716"/>
	<circle cx="538.575" cy="906.851" r="6.431"/>
	<circle cx="485.368" cy="1117.478" r="2.716"/>
	<circle cx="1144.013" cy="1489.546" r="2.716"/>
	<circle cx="268.357" cy="286.498" r="2.716"/>
	<circle cx="1199.479" cy="1530.521" r="2.716"/>
	<circle cx="312.512" cy="955.294" r="2.716"/>
	<circle cx="1131.042" cy="717.693" r="3.254"/>
	<circle cx="1229.737" cy="1558.775" r="4.698"/>
	<circle cx="1498.593" cy="885.44" r="5.639"/>
	<circle cx="1484.146" cy="206.131" r="2.716"/>
	<circle cx="1534.904" cy="271.921" r="2.716"/>
	<circle cx="490.761" cy="123.87" r="4.587"/>
	<circle cx="471.327" cy="1064.611" r="2.716"/>
	<circle cx="1563.279" cy="1117.271" r="2.716"/>
	<circle cx="975.8" cy="613.971" r="2.716"/>
	<circle cx="252.242" cy="745.106" r="5.52"/>
	<circle cx="66.748" cy="513.746" r="3.434"/>
	<circle cx="1586.632" cy="1037.764" r="2.716"/>
	<circle cx="726.628" cy="1154.375" r="2.716"/>
	<circle cx="674.258" cy="995.507" r="2.716"/>
	<circle cx="161.186" cy="359.043" r="8.033"/>
	<circle cx="88.511" cy="612.388" r="2.716"/>
	<circle cx="617.095" cy="431.614" r="5.052"/>
	<circle cx="504.46" cy="440.038" r="8.799"/>
	<circle cx="995.464" cy="872.157" r="6.171"/>
	<circle cx="761.266" cy="657.202" r="7.865"/>
	<circle cx="1382.045" cy="1258.296" r="3.851"/>
	<circle cx="1635.297" cy="465.101" r="6.391"/>
	<circle cx="466.533" cy="915.393" r="2.716"/>
	<circle cx="1795.857" cy="576.441" r="3.871"/>
	<circle cx="210.398" cy="875.211" r="11.571"/>
	<circle cx="1589.938" cy="286.074" r="6.314"/>
	<circle cx="640.192" cy="1229.975" r="3.283"/>
	<circle cx="1380.728" cy="437.643" r="14.743"/>
	<circle cx="1020.32" cy="53.473" r="8.735"/>
	<circle cx="882.741" cy="525.516" r="7.8"/>
	<circle cx="677.93" cy="622.331" r="7.333"/>
	<circle cx="774.109" cy="151.748" r="16.246"/>
	<circle cx="1558.823" cy="1437.151" r="6.67"/>
	<circle cx="655.714" cy="1132.975" r="4.029"/>
	<circle cx="1140.119" cy="1464.677" r="9.833"/>
	<circle cx="477.488" cy="891.44" r="2.716"/>
	<circle cx="597.508" cy="792.687" r="3.79"/>
	<circle cx="567.215" cy="91.446" r="4.924"/>
	<circle cx="1366.241" cy="228.835" r="7.83"/>
	<circle cx="1555.188" cy="986.52" r="8.87"/>
	<circle cx="1140.839" cy="262.152" r="2.716"/>
	<circle cx="1048.265" cy="1412.248" r="4.007"/>
	<circle cx="484.948" cy="964.084" r="2.716"/>
	<circle cx="968.018" cy="945.197" r="3.61"/>
	<circle cx="477.083" cy="817.47" r="6.721"/>
	<circle cx="298.863" cy="962.721" r="2.716"/>
	<circle cx="1156.428" cy="1167.666" r="4.505"/>
	<circle cx="1910.532" cy="1037.058" r="4.681"/>
	<circle cx="528.456" cy="1157.889" r="2.716"/>
	<circle cx="597.143" cy="586.429" r="4.481"/>
	<circle cx="1239.227" cy="117.468" r="3.243"/>
	<circle cx="394.029" cy="846.606" r="2.716"/>
	<circle cx="490.617" cy="956.448" r="6.794"/>
	<circle cx="571.987" cy="1153.732" r="10.42"/>
	<circle cx="1276.82" cy="794.591" r="2.716"/>
	<circle cx="1230.2" cy="950.593" r="2.716"/>
	<circle cx="1561.578" cy="657.461" r="2.716"/>
	<circle cx="850.348" cy="862.751" r="2.947"/>
	<circle cx="1442.557" cy="674.447" r="8.964"/>
	<circle cx="697.602" cy="466.47" r="2.716"/>
	<circle cx="883.936" cy="293.799" r="2.716"/>
	<circle cx="1120.911" cy="1431.934" r="2.716"/>
	<circle cx="1116.898" cy="876.127" r="12.551"/>
	<circle cx="1605.229" cy="941.842" r="8.24"/>
	<circle cx="943.354" cy="1276.224" r="5.973"/>
	<circle cx="495.828" cy="1139.837" r="3.735"/>
	<circle cx="631.338" cy="778.026" r="4.092"/>
	<circle cx="341.387" cy="500.105" r="2.716"/>
	<circle cx="1390.557" cy="1212.334" r="2.729"/>
	<circle cx="1220.216" cy="323.167" r="8.55"/>
	<circle cx="1460.396" cy="639.044" r="3.392"/>
	<circle cx="1396.956" cy="1302.741" r="5.367"/>
	<circle cx="1351.227" cy="836.905" r="9.608"/>
	<circle cx="828.168" cy="307.74" r="10.053"/>
	<circle cx="1375.49" cy="726.039" r="6.051"/>
	<circle cx="1779.919" cy="653.284" r="3.307"/>
	<circle cx="1374.814" cy="421.217" r="2.716"/>
	<circle cx="1843.878" cy="1145.911" r="3.028"/>
	<circle cx="120.128" cy="785.742" r="2.716"/>
	<circle cx="1219.653" cy="1381.773" r="8.173"/>
	<circle cx="1002.909" cy="438.996" r="5.064"/>
	<circle cx="978.531" cy="972.965" r="2.716"/>
	<circle cx="1023.453" cy="425.655" r="6.963"/>
	<circle cx="768.997" cy="1244.083" r="2.716"/>
	<circle cx="1373.472" cy="366.761" r="2.754"/>
	<circle cx="486.378" cy="357.549" r="10.539"/>
	<circle cx="1684.335" cy="451.635" r="2.716"/>
	<circle cx="913.891" cy="272.945" r="2.716"/>
	<circle cx="412.359" cy="831.194" r="8.288"/>
	<circle cx="1065.563" cy="1099.804" r="2.716"/>
	<circle cx="945.963" cy="727.65" r="2.716"/>
	<circle cx="255.319" cy="423.976" r="6.424"/>
	<circle cx="438.24" cy="324.875" r="3.804"/>
	<circle cx="375.966" cy="368.23" r="3.784"/>
	<circle cx="541.764" cy="686.386" r="9.753"/>
	<circle cx="1408.828" cy="355.178" r="4.256"/>
	<circle cx="683.71" cy="354.325" r="2.721"/>
	<circle cx="432.01" cy="497.07" r="9.804"/>
	<circle cx="1380.671" cy="831.314" r="8.852"/>
	<circle cx="1373.09" cy="767.263" r="2.823"/>
	<circle cx="574.573" cy="705.063" r="3.553"/>
	<circle cx="1610.295" cy="590.478" r="3.531"/>
	<circle cx="1814.564" cy="670.167" r="4.925"/>
	<circle cx="597.287" cy="112.572" r="8.78"/>
	<circle cx="1170.201" cy="698.759" r="2.716"/>
	<circle cx="1616.31" cy="641.891" r="2.716"/>
	<circle cx="1457.443" cy="1109.584" r="5.128"/>
	<circle cx="668.772" cy="136.954" r="3.68"/>
	<circle cx="1856.885" cy="665.899" r="3.631"/>
	<circle cx="467.623" cy="368.377" r="2.716"/>
	<circle cx="1561.349" cy="976.707" r="2.716"/>
	<circle cx="71.071" cy="630.42" r="2.716"/>
	<circle cx="1807.626" cy="1212.392" r="15.989"/>
	<circle cx="1254.982" cy="947.507" r="2.716"/>
	<circle cx="460.157" cy="442.917" r="5.276"/>
	<circle cx="1180.87" cy="406.308" r="8.344"/>
	<circle cx="772.26" cy="989.463" r="5.184"/>
	<circle cx="461.123" cy="845.24" r="2.716"/>
	<circle cx="203.902" cy="568.407" r="8.619"/>
	<circle cx="1032.317" cy="439.115" r="2.992"/>
	<circle cx="624.584" cy="1186.798" r="2.716"/>
	<circle cx="920.8" cy="889.728" r="5.661"/>
	<circle cx="767.019" cy="329.605" r="2.936"/>
	<circle cx="434.513" cy="298.795" r="2.716"/>
	<circle cx="1369.969" cy="259.281" r="12.354"/>
	<circle cx="1910.488" cy="783.265" r="4.4"/>
	<circle cx="812.453" cy="64.616" r="2.716"/>
	<circle cx="1238.015" cy="1084.632" r="5.073"/>
	<circle cx="1442.557" cy="523.568" r="15.98"/>
	<circle cx="944.371" cy="847.57" r="4.884"/>
	<circle cx="1480.44" cy="1228.64" r="2.716"/>
	<circle cx="863.361" cy="1047.845" r="2.716"/>
	<circle cx="1073.638" cy="1388.118" r="2.716"/>
	<circle cx="1128.704" cy="255.922" r="3.014"/>
	<circle cx="519.239" cy="593.054" r="12.553"/>
	<circle cx="1454.771" cy="507.079" r="2.794"/>
	<circle cx="1056.705" cy="562.402" r="6.464"/>
	<circle cx="159.863" cy="753.527" r="4.614"/>
	<circle cx="1121.429" cy="710.44" r="8.276"/>
	<circle cx="1070.094" cy="852.08" r="3.465"/>
	<circle cx="1212.296" cy="722.132" r="2.716"/>
	<circle cx="1382.04" cy="231.461" r="8.186"/>
	<circle cx="1336.561" cy="1169.479" r="2.716"/>
	<circle cx="809.099" cy="1226.272" r="8.75"/>
	<circle cx="1043.753" cy="195.15" r="2.727"/>
	<circle cx="426.926" cy="640.369" r="12.716"/>
	<circle cx="1061.876" cy="767.277" r="4.108"/>
	<circle cx="400.936" cy="887.058" r="3.528"/>
	<circle cx="460.198" cy="518.705" r="2.716"/>
	<circle cx="1313.896" cy="629.94" r="4.373"/>
	<circle cx="1215.613" cy="778.985" r="3.496"/>
	<circle cx="109.78" cy="451.6" r="11.407"/>
	<circle cx="247.055" cy="306.917" r="2.824"/>
	<circle cx="1239.97" cy="1465.714" r="3.376"/>
	<circle cx="988.549" cy="617.381" r="7.363"/>
	<circle cx="818.038" cy="532.136" r="3.009"/>
	<circle cx="1414.001" cy="506.734" r="5.229"/>
	<circle cx="1608.615" cy="952.262" r="2.716"/>
	<circle cx="630.257" cy="1145.82" r="6.841"/>
	<circle cx="657.103" cy="439.811" r="2.716"/>
	<circle cx="756.032" cy="810.194" r="4.669"/>
	<circle cx="1260.431" cy="118.849" r="2.716"/>
	<circle cx="1776.446" cy="936.328" r="2.716"/>
	<circle cx="1701.335" cy="838.549" r="2.716"/>
	<circle cx="610.723" cy="1058.795" r="2.716"/>
	<circle cx="1903.405" cy="836.667" r="5.651"/>
	<circle cx="1141.632" cy="86.774" r="9.506"/>
	<circle cx="1451.476" cy="651.109" r="2.716"/>
	<circle cx="198.744" cy="617.123" r="3.702"/>
	<circle cx="1074.008" cy="624.416" r="5.997"/>
	<circle cx="216.035" cy="639.142" r="7.614"/>
	<circle cx="419.497" cy="496.632" r="2.716"/>
	<circle cx="1480.812" cy="881.335" r="11.611"/>
	<circle cx="562.684" cy="878.67" r="2.716"/>
	<circle cx="1198.603" cy="372.688" r="2.716"/>
	<circle cx="1769.882" cy="1248.956" r="5.021"/>
	<circle cx="467.734" cy="430.694" r="9.106"/>
	<circle cx="1271.235" cy="1469.519" r="3.432"/>
	<circle cx="965.927" cy="585.407" r="2.739"/>
	<circle cx="433.821" cy="805.463" r="3.73"/>
	<circle cx="1834.222" cy="1161.267" r="2.716"/>
	<circle cx="1749.839" cy="1017.734" r="2.766"/>
	<circle cx="1118.525" cy="92.669" r="3.304"/>
	<circle cx="951.151" cy="1280.06" r="2.716"/>
	<circle cx="1080.025" cy="62.738" r="7.467"/>
	<circle cx="1377.658" cy="412.233" r="6.707"/>
	<circle cx="1064.912" cy="855.451" r="2.716"/>
	<circle cx="937.043" cy="591.505" r="8.559"/>
	<circle cx="224.331" cy="648.173" r="4.649"/>
	<circle cx="1384.087" cy="681.055" r="2.716"/>
	<circle cx="585.47" cy="1094.173" r="3.919"/>
	<circle cx="1132.354" cy="1320.718" r="2.964"/>
	<circle cx="365.207" cy="360.033" r="2.716"/>
	<circle cx="914.801" cy="184.634" r="7.928"/>
	<circle cx="1270.075" cy="344.438" r="6.129"/>
	<circle cx="1325.289" cy="504.689" r="10.271"/>
	<circle cx="1239.417" cy="1177.525" r="8.095"/>
	<circle cx="1693.613" cy="879.329" r="11.534"/>
	<circle cx="156.909" cy="449.444" r="9.599"/>
	<circle cx="490.958" cy="1145.282" r="3.059"/>
	<circle cx="969.467" cy="800.906" r="5.144"/>
	<circle cx="496.242" cy="1155.552" r="8.271"/>
	<circle cx="1206.139" cy="332.673" r="8.436"/>
	<circle cx="1154.089" cy="441.921" r="8.743"/>
	<circle cx="165.133" cy="862.761" r="17.41"/>
	<circle cx="681.051" cy="921.86" r="4.868"/>
	<circle cx="1104.492" cy="699.357" r="8.391"/>
	<circle cx="1611.717" cy="1004.381" r="2.716"/>
	<circle cx="603.388" cy="98.779" r="4.912"/>
	<circle cx="485.358" cy="1143.871" r="2.716"/>
	<circle cx="245.409" cy="726.68" r="3.281"/>
	<circle cx="1394.212" cy="677.614" r="7.898"/>
	<circle cx="573.743" cy="158.551" r="4.537"/>
	<circle cx="671.155" cy="124.904" r="8.603"/>
	<circle cx="1523.802" cy="1477.317" r="2.716"/>
	<circle cx="1228.768" cy="808.946" r="3.039"/>
	<circle cx="552.26" cy="574.086" r="2.716"/>
	<circle cx="641.906" cy="482.472" r="4.191"/>
	<circle cx="1728.944" cy="1258.083" r="4.788"/>
	<circle cx="1213.739" cy="820.538" r="2.716"/>
	<circle cx="355.175" cy="491.912" r="4.475"/>
	<circle cx="1817.117" cy="908.193" r="2.716"/>
	<circle cx="764.048" cy="910.909" r="6.22"/>
	<circle cx="1049.484" cy="871.613" r="2.915"/>
	<circle cx="1491.261" cy="1301.476" r="2.965"/>
	<circle cx="1426.419" cy="1157.828" r="2.716"/>
	<circle cx="1359.894" cy="220.414" r="2.716"/>
	<circle cx="1402.333" cy="670.78" r="2.716"/>
	<circle cx="593.349" cy="1222.379" r="3.309"/>
	<circle cx="67.851" cy="697.982" r="9.39"/>
	<circle cx="1037.614" cy="1317.917" r="5.825"/>
	<circle cx="1391.688" cy="834.843" r="2.716"/>
	<circle cx="1279.015" cy="1445.246" r="8.443"/>
	<circle cx="902.037" cy="1223.948" r="3.907"/>
	<circle cx="1445.434" cy="1122.586" r="8.611"/>
</g>
</svg>
